<?xml version="1.0" encoding="utf-8"?>
<!-- Generator: Adobe Illustrator 23.1.1, SVG Export Plug-In . SVG Version: 6.00 Build 0)  -->
<svg version="1.1" id="Calque_1" xmlns="http://www.w3.org/2000/svg" xmlns:xlink="http://www.w3.org/1999/xlink" x="0px" y="0px"
	 width="488px" height="102px" viewBox="0 0 488 102" style="enable-background:new 0 0 488 102;" xml:space="preserve">
<style type="text/css">
	.st0{fill:#1D1D1B;}
</style>
<g transform="matrix(4.357298631868611,0,0,4.357298631868611,127.58696443664917,-10.718954323777375)">
	<path d="M1.5,15.3L1.5,15.3L1.5,15.3c-0.1-0.2-0.1-0.5-0.1-0.9l0,0l0,0c0-0.4,0.1-1.6,0.4-3.6l0,0l0,0c0.3-2,0.4-3.5,0.4-4.7l0,0
		l0,0c0-0.3,0-0.7-0.1-1.2l0,0l0,0c0.7,0,1.1,0.2,1.3,0.5l0,0l0,0c0.1,0.2,0.2,0.3,0.2,0.5l0,0l0,0c0,0.2,0,0.4,0,0.7l0,0l0,0
		c0,0.3-0.2,1.6-0.5,3.7l0,0l0,0C3,12.5,2.8,14.1,2.8,15l0,0l0,0c0,0,0.1,0,0.2,0l0,0l0,0c2,0,3.5-0.1,4.5-0.4l0,0l0,0
		c-0.1,0.5-0.2,1-0.5,1.3l0,0l0,0c-0.3,0.3-0.7,0.4-1.1,0.4l0,0l0,0c-0.1,0-0.5,0-1.2-0.1l0,0l0,0c-0.7-0.1-1.3-0.1-2-0.1l0,0l0,0
		c-0.6,0-1.3,0.1-1.9,0.2l0,0l0,0C0.9,15.9,1.2,15.5,1.5,15.3z M10.8,10.7L10.8,10.7L10.8,10.7c-0.3,0.5-0.5,0.9-0.6,1.4l0,0l0,0
		c-0.1,0.5-0.2,1-0.2,1.4l0,0l0,0c0,0.4,0.1,0.8,0.3,1.1l0,0l0,0c0.2,0.3,0.5,0.5,0.9,0.5l0,0l0,0c0.5,0,1-0.3,1.5-0.9l0,0l0,0
		c0.5-0.6,0.8-1.3,1.1-2.1l0,0l0,0c0.2-0.8,0.4-1.6,0.4-2.3l0,0l0,0c0-0.7,0-1.3-0.1-1.7l0,0l0,0c0.2,0,0.4,0,0.4,0l0,0l0,0
		c0.8,0,1.2,0.4,1.2,1.2l0,0l0,0c0,0.2-0.1,0.9-0.3,2.2l0,0l0,0c-0.2,1.3-0.3,2.3-0.3,3l0,0l0,0c0,0.8,0.1,1.4,0.4,2l0,0l0,0
		c-0.6-0.1-1-0.4-1.3-0.8l0,0l0,0c-0.3-0.4-0.4-1-0.4-1.7l0,0l0,0c0-0.1,0-0.4,0.1-0.8l0,0l0,0c-0.3,0.9-0.7,1.6-1.3,2.1l0,0l0,0
		c-0.6,0.5-1.3,0.8-1.9,0.8l0,0l0,0c-0.6,0-1.1-0.2-1.5-0.7l0,0l0,0c-0.4-0.5-0.6-1.1-0.6-1.9l0,0l0,0c0-0.8,0.2-1.6,0.5-2.4l0,0
		l0,0c0.3-0.8,0.8-1.5,1.4-2l0,0l0,0c0.6-0.6,1.3-0.9,2.1-0.9l0,0l0,0c0.3,0,0.7,0.1,1.1,0.2l0,0l0,0c-0.6,0.1-1.1,0.4-1.5,0.8l0,0
		l0,0C11.4,9.8,11,10.2,10.8,10.7z M24.8,6.4L24.8,6.4l0,0.2l0,0c0,0.4-0.1,1.5-0.4,3.5l0,0l0,0C24.2,12,24,13.7,24,15l0,0l0,0
		c0,0.6,0,1,0.1,1.4l0,0l0,0c-0.2,0-0.4,0-0.4,0l0,0l0,0c-0.4,0-0.7-0.1-0.9-0.3l0,0l0,0c-0.2-0.2-0.3-0.5-0.3-0.9l0,0l0,0
		c0-0.4,0.2-1.8,0.5-4l0,0l0,0c0.3-2.2,0.5-3.8,0.5-4.7l0,0l0,0c0-0.9-0.1-1.6-0.2-1.9l0,0l0,0c0.3,0,0.6,0.2,0.8,0.3l0,0l0,0
		c0.3,0.2,0.5,0.4,0.6,0.8l0,0l0,0c0.7-0.4,1.5-0.6,2.4-0.6l0,0l0,0c0.9,0,1.6,0.3,2.1,0.8l0,0l0,0c0.5,0.5,0.8,1.2,0.8,2l0,0l0,0
		c0,1-0.4,1.9-1.1,2.7l0,0l0,0c-0.7,0.8-1.7,1.2-2.9,1.2l0,0l0,0c-0.3,0-0.5,0-0.8,0l0,0l0-0.5l0,0c0.6,0,1.2-0.1,1.6-0.3l0,0l0,0
		c0.5-0.2,0.8-0.4,1.1-0.7l0,0l0,0c0.5-0.6,0.7-1.3,0.7-2.1l0,0l0,0c0-0.6-0.2-1.1-0.6-1.4l0,0l0,0c-0.4-0.4-0.9-0.6-1.6-0.6l0,0
		l0,0C25.9,6.2,25.4,6.2,24.8,6.4z M33,10.7L33,10.7L33,10.7c-0.3,0.5-0.5,0.9-0.6,1.4l0,0l0,0c-0.1,0.5-0.2,1-0.2,1.4l0,0l0,0
		c0,0.4,0.1,0.8,0.3,1.1l0,0l0,0c0.2,0.3,0.5,0.5,0.9,0.5l0,0l0,0c0.5,0,1-0.3,1.5-0.9l0,0l0,0c0.5-0.6,0.8-1.3,1-2.1l0,0l0,0
		c0.3-0.8,0.4-1.6,0.4-2.3l0,0l0,0c0-0.7,0-1.3-0.1-1.7l0,0l0,0c0.2,0,0.4,0,0.4,0l0,0l0,0c0.8,0,1.2,0.4,1.2,1.2l0,0l0,0
		c0,0.2-0.1,0.9-0.3,2.2l0,0l0,0c-0.2,1.3-0.3,2.3-0.3,3l0,0l0,0c0,0.8,0.1,1.4,0.4,2l0,0l0,0c-0.6-0.1-1-0.4-1.3-0.8l0,0l0,0
		c-0.3-0.4-0.4-1-0.4-1.7l0,0l0,0c0-0.1,0-0.4,0.1-0.8l0,0l0,0c-0.3,0.9-0.7,1.6-1.3,2.1l0,0l0,0c-0.6,0.5-1.3,0.8-1.9,0.8l0,0l0,0
		c-0.6,0-1.1-0.2-1.5-0.7l0,0l0,0c-0.4-0.5-0.6-1.1-0.6-1.9l0,0l0,0c0-0.8,0.2-1.6,0.5-2.4l0,0l0,0c0.3-0.8,0.8-1.5,1.4-2l0,0l0,0
		c0.6-0.6,1.3-0.9,2-0.9l0,0l0,0c0.3,0,0.7,0.1,1.1,0.2l0,0l0,0C35,8.8,34.5,9,34,9.4l0,0l0,0C33.6,9.8,33.2,10.2,33,10.7z
		 M46.3,10.1L46.3,10.1L46.3,10.1c0,0.4-0.1,1.2-0.3,2.3l0,0l0,0c-0.2,1.1-0.3,1.9-0.3,2.4l0,0l0,0c0,0.5,0.1,0.9,0.2,1.1l0,0l0,0
		c0.1,0.2,0.3,0.4,0.6,0.6l0,0l0,0c-0.1,0-0.3,0-0.5,0l0,0l0,0c-0.6,0-1.1-0.1-1.3-0.4l0,0l0,0c-0.3-0.2-0.4-0.7-0.4-1.3l0,0l0,0
		c0-0.3,0.1-1,0.3-2.1l0,0l0,0c0.2-1.1,0.3-1.8,0.3-2.3l0,0l0,0c0-0.6-0.2-0.9-0.6-0.9l0,0l0,0c-0.6,0-1.2,0.5-1.9,1.6l0,0l0,0
		c-0.6,1.1-1,2.3-1,3.8l0,0l0,0c0,0.6,0,1,0.1,1.4l0,0l0,0c-0.2,0-0.4,0-0.4,0l0,0l0,0c-0.8,0-1.2-0.4-1.2-1.2l0,0l0,0
		c0-0.2,0.1-0.9,0.3-2.1l0,0l0,0c0.2-1.3,0.3-2.3,0.3-3l0,0l0,0c0-0.7-0.1-1.4-0.2-2l0,0l0,0c0.6,0.2,0.9,0.5,1.2,0.9l0,0l0,0
		c0.2,0.4,0.3,0.9,0.3,1.4l0,0l0,0c0,0.5-0.1,1.1-0.2,1.8l0,0l0,0c0.3-1.1,0.8-1.9,1.5-2.7l0,0l0,0c0.7-0.7,1.3-1.1,1.8-1.1l0,0l0,0
		C45.9,8.1,46.3,8.7,46.3,10.1z M53.1,8.5L53.1,8.5L53.1,8.5c0,0.4-0.1,0.7-0.2,0.8l0,0l0,0c-0.2,0.1-0.4,0.2-0.7,0.2l0,0h-1l0,0
		c0,0.2-0.1,0.8-0.3,1.7l0,0l0,0c-0.3,1.7-0.5,3-0.5,3.9l0,0l0,0c0,0.9,0.1,1.5,0.2,1.8l0,0l0,0c-0.5-0.2-0.9-0.5-1.1-0.9l0,0l0,0
		c-0.2-0.4-0.3-0.9-0.3-1.5l0,0l0,0c0-0.6,0-1.1,0.1-1.6l0,0l0,0c0.1-0.5,0.2-1.1,0.3-1.8l0,0l0,0c0.1-0.7,0.2-1.2,0.3-1.6l0,0l0,0
		c-0.5,0.1-1.1,0.2-1.6,0.4l0,0l0,0c0-0.2,0-0.3,0-0.4l0,0l0,0c0-0.4,0.1-0.7,0.4-0.9l0,0l0,0C49,8.6,49.4,8.5,50,8.5l0,0l0,0
		C50,7.8,50,7.3,50,6.9l0,0l0,0c0-0.3,0-0.6,0-0.8l0,0l0,0c0-0.2,0-0.4,0-0.5l0,0l0,0c0.4,0.1,0.8,0.3,1,0.6l0,0l0,0
		c0.2,0.3,0.4,0.7,0.4,1.3l0,0l0,0c0,0.3,0,0.6-0.1,1l0,0l0,0c0.8,0,1.4-0.1,1.7-0.4l0,0l0,0C53,8.3,53.1,8.4,53.1,8.5z M55.7,11.8
		L55.7,11.8c0.3-1.1,0.8-1.9,1.4-2.7l0,0l0,0c0.6-0.7,1.2-1.1,1.8-1.1l0,0l0,0c0.6,0,1,0.2,1.2,0.5l0,0l0,0c0.2,0.3,0.4,0.8,0.4,1.4
		l0,0l0,0c0,0.6-0.1,1.4-0.3,2.4l0,0l0,0c-0.2,1.1-0.3,1.8-0.3,2.3l0,0l0,0c0,0.5,0.1,0.8,0.2,1.1l0,0l0,0c0.1,0.2,0.3,0.4,0.6,0.6
		l0,0l0,0c-0.1,0-0.3,0-0.5,0l0,0l0,0c-0.6,0-1-0.1-1.3-0.4l0,0l0,0c-0.3-0.2-0.4-0.7-0.4-1.3l0,0l0,0c0-0.3,0.1-1,0.3-2.1l0,0l0,0
		c0.2-1.1,0.3-1.8,0.3-2.3l0,0l0,0c0-0.6-0.2-0.9-0.6-0.9l0,0l0,0c-0.3,0-0.5,0.1-0.8,0.4l0,0l0,0c-0.3,0.3-0.6,0.6-0.9,1.1l0,0l0,0
		c-0.3,0.5-0.5,1-0.7,1.7l0,0l0,0c-0.2,0.7-0.3,1.4-0.3,2.1l0,0l0,0c0,0.7,0,1.2,0.1,1.5l0,0l0,0c-0.2,0-0.4,0-0.4,0l0,0l0,0
		c-0.4,0-0.8-0.1-1-0.3l0,0l0,0C54.1,15.7,54,15.4,54,15l0,0l0,0c0-0.4,0.1-1.2,0.2-2.3l0,0l0,0C54.8,9.3,55,6.6,55,4.8l0,0l0,0
		C55,4,55,3.5,54.9,3.2l0,0l0,0c0.5,0.2,0.9,0.5,1.1,0.9l0,0l0,0c0.2,0.4,0.3,0.9,0.3,1.6l0,0l0,0c0,0.5-0.1,1.4-0.3,2.9l0,0l0,0
		C55.9,10.1,55.8,11.2,55.7,11.8L55.7,11.8z M66.3,8.8L66.3,8.8L66.3,8.8c-0.6,0-1,0.3-1.4,1l0,0l0,0c-0.4,0.6-0.7,1.4-0.8,2.3l0,0
		h0.4l0,0c0.5,0,0.9-0.1,1.3-0.2l0,0l0,0c0.4-0.1,0.6-0.3,0.8-0.5l0,0l0,0c0.4-0.4,0.6-0.9,0.6-1.5l0,0l0,0c0-0.3-0.1-0.6-0.2-0.7
		l0,0l0,0C66.8,8.9,66.6,8.8,66.3,8.8z M68.2,14.5L68.2,14.5c-0.4,0.7-0.9,1.2-1.4,1.5l0,0l0,0c-0.5,0.3-1.1,0.4-1.8,0.4l0,0l0,0
		c-0.7,0-1.3-0.3-1.8-0.9l0,0l0,0c-0.5-0.6-0.8-1.4-0.8-2.5l0,0l0,0c0-1.2,0.3-2.3,1-3.3l0,0l0,0c0.3-0.5,0.8-0.8,1.3-1.1l0,0l0,0
		c0.5-0.3,1.1-0.4,1.7-0.4l0,0l0,0c1.4,0,2.1,0.7,2.1,2l0,0l0,0c0,0.8-0.3,1.5-0.9,1.9l0,0l0,0c-0.6,0.5-1.4,0.7-2.2,0.7l0,0l0,0
		c-0.6,0-1.1,0-1.5-0.1l0,0l0,0c0,0.1,0,0.2,0,0.4l0,0l0,0c0,1.7,0.5,2.5,1.5,2.5l0,0l0,0c0.9,0,1.7-0.5,2.2-1.4l0,0l0,0
		C68.1,14.1,68.2,14.3,68.2,14.5L68.2,14.5z M68,7L68,7L68,7c0,0.1-0.1,0.2-0.2,0.3l0,0l0,0c-0.1,0.1-0.2,0.1-0.3,0.2l0,0l0,0
		c-0.3-0.4-0.8-0.8-1.3-1.2l0,0l0,0c-0.5-0.4-1.1-0.7-1.6-0.9l0,0l0,0c0-0.5,0.2-0.9,0.7-1.2l0,0l0,0c0.5,0.2,1,0.6,1.5,1.2l0,0l0,0
		C67.4,6,67.7,6.5,68,7z M72.1,11.6L72.1,11.6c0.3-1.2,0.7-2.1,1.2-2.7l0,0l0,0c0.5-0.6,0.9-0.9,1.3-0.9l0,0l0,0
		c0.4,0,0.7,0.2,0.9,0.4l0,0l0,0c0.2,0.3,0.3,0.7,0.3,1.2l0,0l0,0c0,0.5-0.1,0.9-0.4,1.2l0,0l0,0c-0.2,0.3-0.6,0.5-1.1,0.5l0,0l0,0
		c-0.1,0-0.3,0-0.3,0l0,0l0,0c0.3-0.5,0.5-0.9,0.5-1.4l0,0l0,0c0-0.3-0.1-0.5-0.4-0.5l0,0l0,0c-0.2,0-0.4,0.1-0.7,0.4l0,0l0,0
		c-0.2,0.3-0.5,0.6-0.7,1.1l0,0l0,0c-0.2,0.5-0.4,1-0.6,1.8l0,0l0,0C72,13.4,72,14.1,72,15l0,0l0,0c0,0.1,0,0.5,0.1,1.2l0,0l0,0
		c-0.2,0-0.4,0-0.4,0l0,0l0,0c-0.8,0-1.2-0.4-1.2-1.2l0,0l0,0c0-0.2,0.1-0.9,0.3-2.1l0,0l0,0c0.2-1.3,0.3-2.3,0.3-3l0,0l0,0
		c0-0.7-0.1-1.4-0.2-2l0,0l0,0c0.6,0.2,0.9,0.5,1.2,0.9l0,0l0,0c0.2,0.4,0.3,0.9,0.3,1.4l0,0l0,0C72.2,10.6,72.2,11.1,72.1,11.6
		L72.1,11.6z M80.3,8.8L80.3,8.8L80.3,8.8c-0.6,0-1,0.3-1.4,1l0,0l0,0c-0.4,0.6-0.6,1.4-0.8,2.3l0,0h0.4l0,0c0.5,0,0.9-0.1,1.3-0.2
		l0,0l0,0c0.4-0.1,0.6-0.3,0.8-0.5l0,0l0,0c0.4-0.4,0.6-0.9,0.6-1.5l0,0l0,0c0-0.3-0.1-0.6-0.2-0.7l0,0l0,0
		C80.9,8.9,80.6,8.8,80.3,8.8z M82.3,14.5L82.3,14.5c-0.4,0.7-0.9,1.2-1.4,1.5l0,0l0,0c-0.5,0.3-1.1,0.4-1.8,0.4l0,0l0,0
		c-0.7,0-1.3-0.3-1.8-0.9l0,0l0,0c-0.5-0.6-0.8-1.4-0.8-2.5l0,0l0,0c0-1.2,0.3-2.3,1-3.3l0,0l0,0c0.3-0.5,0.8-0.8,1.3-1.1l0,0l0,0
		c0.5-0.3,1.1-0.4,1.7-0.4l0,0l0,0c1.4,0,2.1,0.7,2.1,2l0,0l0,0c0,0.8-0.3,1.5-0.9,1.9l0,0l0,0c-0.6,0.5-1.4,0.7-2.2,0.7l0,0l0,0
		c-0.6,0-1.1,0-1.5-0.1l0,0l0,0c0,0.1,0,0.2,0,0.4l0,0l0,0c0,1.7,0.5,2.5,1.5,2.5l0,0l0,0c0.9,0,1.7-0.5,2.2-1.4l0,0l0,0
		C82.1,14.1,82.3,14.3,82.3,14.5L82.3,14.5z"/>
</g>
<g transform="matrix(1.2101654687240968,0,0,1.2101654687240968,-4.368992009843154,-14.702727655207887)">
	<path class="st0" d="M44,48.7L44,48.7c-0.8-1.4-2-2.4-3.5-2.8h-0.1c-0.8-0.2-1.7-0.4-2.5-0.5c-2.3-0.3-4.5-1.1-6.4-2.4
		c-0.4-0.2-0.8-0.1-1,0.3c-0.2,0.3-0.1,0.8,0.2,1c0.6,0.4,1.3,0.8,2,1.1c0,0.1-0.1,0.2-0.1,0.3c-0.9,3.2,0.9,6.6,4.1,7.5
		c0.6,0.2,1.2,0.3,1.8,0.2c1.8,0,3.6-0.8,4.7-2.3c0.1,1,0,2-0.2,3c-0.2,0.4,0,0.8,0.4,1c0,0,0,0,0.1,0c0.1,0,0.2,0,0.2,0
		c0.3,0,0.6-0.2,0.7-0.5c0.3-1.3,0.4-2.7,0.2-4.1C44.5,49.9,44.3,49.3,44,48.7z M39.5,47.2c0,0.2,0,0.3,0,0.5
		c-0.2,0.7-0.9,1.1-1.6,0.9S36.8,47.7,37,47c0-0.1,0.1-0.1,0.1-0.2l0.6,0.1C38.3,47,38.9,47.1,39.5,47.2L39.5,47.2z M40.5,51.5
		c-1.1,0.6-2.3,0.7-3.5,0.3c-2.4-0.7-3.8-3.2-3.1-5.7V46c0.6,0.2,1.1,0.4,1.7,0.5v0.1c-0.5,1.5,0.3,3,1.8,3.5c1.5,0.5,3-0.3,3.5-1.8
		c0.1-0.2,0.1-0.3,0.1-0.5c0.6,0.3,1.1,0.8,1.5,1.3C42.1,50.1,41.4,51,40.5,51.5L40.5,51.5z M67.6,45.7c0-0.1-0.1-0.2-0.1-0.3
		c0.7-0.3,1.4-0.7,2-1.1c0.3-0.3,0.4-0.7,0.1-1.1c-0.2-0.3-0.7-0.4-1-0.2c-1.9,1.3-4.1,2.1-6.4,2.4c-0.9,0.1-1.7,0.2-2.5,0.5h-0.1
		c-1.5,0.4-2.8,1.4-3.5,2.7v0c-0.3,0.6-0.5,1.3-0.5,2c-0.2,1.4-0.1,2.8,0.2,4.1c0.1,0.3,0.4,0.5,0.7,0.5c0.4,0,0.8-0.3,0.8-0.7
		c0-0.1,0-0.2,0-0.3c-0.2-1-0.3-2-0.2-3c1.1,1.4,2.9,2.3,4.7,2.3c0.6,0,1.2-0.1,1.8-0.2C66.6,52.4,68.5,49,67.6,45.7
		C67.6,45.7,67.6,45.7,67.6,45.7z M62.3,46.9l0.6-0.1c0,0.1,0.1,0.1,0.1,0.2c0.2,0.7-0.2,1.4-0.9,1.6c-0.7,0.2-1.4-0.2-1.6-0.8
		c-0.1-0.2-0.1-0.4,0-0.6C61,47.1,61.7,47,62.3,46.9L62.3,46.9z M63,51.8c-1.2,0.3-2.4,0.2-3.5-0.3c-0.9-0.5-1.7-1.4-2-2.4
		c0.4-0.6,0.9-1,1.5-1.3c0,0.1,0,0.2,0.1,0.4c0.4,1.2,1.4,2,2.7,2c1.5,0,2.8-1.3,2.7-2.9c0-0.2,0-0.4-0.1-0.7v-0.1
		c0.6-0.2,1.1-0.3,1.7-0.5v0.1C66.8,48.6,65.4,51.1,63,51.8z"/>
	<path class="st0" d="M46.3,47.5c-0.2-2.2-2-3.7-5.1-3.9c-1.7-0.2-3.3-0.8-4.7-1.7c-0.3-0.2-0.8-0.1-1,0.2s-0.1,0.8,0.2,1
		c1.6,1,3.5,1.7,5.4,1.9c1.3,0.1,3.6,0.6,3.8,2.5c0,0.4,0.4,0.7,0.8,0.7h0C46.1,48.3,46.4,47.9,46.3,47.5z M59.3,45.1
		c1.9-0.2,3.8-0.9,5.4-1.9c0.3-0.2,0.4-0.7,0.2-1c-0.2-0.3-0.7-0.4-1-0.2c-1.4,0.9-3,1.5-4.7,1.7c-3.1,0.2-5,1.7-5.2,3.9
		c0,0.4,0.3,0.8,0.7,0.8c0,0,0,0,0,0h0c0.4,0,0.7-0.3,0.8-0.7C55.7,45.6,58,45.2,59.3,45.1z M34.6,39.9c0.3,0.3,0.7,0.4,1.1,0.1
		s0.4-0.7,0.1-1.1c0,0,0,0,0,0L32.6,35c-0.3-0.3-0.7-0.4-1.1-0.1s-0.4,0.7-0.1,1.1c0,0,0,0,0,0L34.6,39.9z M38,37.7
		c0.1,0.3,0.4,0.5,0.7,0.5c0.4,0,0.7-0.3,0.7-0.8c0-0.1,0-0.2,0-0.2L38,33.5c-0.1-0.4-0.6-0.6-1-0.4s-0.6,0.6-0.4,1L38,37.7z
		 M42,37.8c0.4,0,0.7-0.3,0.8-0.7L43,34c0-0.4-0.3-0.8-0.7-0.8c0,0,0,0,0,0c-0.4,0-0.8,0.3-0.8,0.7c0,0,0,0,0,0L41.2,37
		C41.2,37.4,41.5,37.8,42,37.8C42,37.8,42,37.8,42,37.8z"/>
	<path class="st0" d="M95.3,63.6c-3.9-1.2-13.1-1.1-20.5-0.8c5-6.3,5-12.4,4.1-15.3c-0.7-2.2-1.7-7.6-0.4-9.7
		c0.2-0.4,0.7-0.7,1.2-0.8c1.8-0.2,2.1-2.1,2.3-3.5c0.1-0.5,0.2-1,0.3-1.5c0.3-0.5,0.7-1,1.2-1.4c1.4-1.1,2.5-2.6,3.2-4.2
		c1.6-3.9-0.5-5.8-0.6-5.9c-0.1-0.1-0.2-0.1-0.3-0.1h-0.1c-1.6-0.4-3.4-0.2-4.8,0.7c-0.7,0.3-1.5,0.7-2.8,1.2
		c-2.7,1.3-5.9,0.8-8-1.3c-4.5-4.3-7.7-5.6-20.1-5.6s-15.5,1.3-20,5.6c-2.1,2.1-5.3,2.7-8,1.3c-0.9-0.4-1.9-0.8-2.8-1.2
		c-1.4-0.9-3.2-1.2-4.8-0.7h-0.1c-0.1,0-0.2,0.1-0.3,0.1c-0.1,0.1-2.2,2-0.6,5.9c0.7,1.7,1.8,3.1,3.2,4.2c0.5,0.4,0.9,0.8,1.2,1.4
		c0.1,0.5,0.2,1,0.2,1.6c0.2,1.5,0.6,3.3,2.3,3.5c0.5,0.1,0.9,0.3,1.2,0.8c1.3,2.1,0.3,7.5-0.4,9.7c-0.9,2.9-0.9,9,4.1,15.3
		c-7.5-0.3-16.6-0.5-20.5,0.8c-0.4,0.1-0.6,0.6-0.5,0.9c0.1,0.4,0.6,0.6,0.9,0.5c4.1-1.3,15-1,21.2-0.7h0.2l0.6,0.7
		c-7.7,0.1-12.9,0.6-15.5,1.6c-0.4,0.1-0.6,0.6-0.5,0.9c0.1,0.4,0.6,0.6,0.9,0.5c0,0,0,0,0,0c2.6-0.9,8.3-1.4,16.6-1.5
		c0.4,0.3,0.7,0.6,1.1,0.9c-6.5,0.4-17,1.2-21,3c-0.4,0.2-0.5,0.6-0.3,1c0.2,0.3,0.6,0.5,0.9,0.4c4.2-1.8,16.2-2.6,22.2-2.9l1,0.7
		l0.1,0.1c-6.3,0.6-10.6,1.4-12.8,2.4c-0.4,0.2-0.5,0.6-0.3,1c0.2,0.3,0.6,0.5,0.9,0.4c2.1-0.9,6.4-1.7,12.7-2.3
		c0,1.8,0.2,3.7,0.7,5.5c1.6,4.3,3.9,5.4,6.5,5.6c0.4,0.7,0.9,1.3,1.5,1.8c-1.4,1.3-2.5,2.8-3.4,4.5c-0.1,0.4,0,0.8,0.4,1
		s0.8,0,1-0.4c0.3-0.7,1.1-2,3.3-4.2c0.6,0.3,1.3,0.6,2,0.8c-0.5,1.1-0.8,2.2-0.9,3.4c0,0.4,0.3,0.8,0.7,0.8c0,0,0,0,0,0
		c0.4,0,0.7-0.3,0.8-0.7c0.1-1.1,0.4-2.2,0.9-3.2c2.2,0.4,4.4,0.4,6.5,0c0.5,1,0.8,2.1,0.9,3.2c0,0.4,0.4,0.7,0.8,0.7
		c0.4,0,0.7-0.4,0.7-0.8c0,0,0,0,0,0c-0.1-1.2-0.4-2.3-0.9-3.4c0.7-0.2,1.4-0.5,2-0.8c2.2,2.2,3,3.5,3.3,4.2c0.1,0.4,0.6,0.6,1,0.4
		s0.6-0.6,0.4-1c-0.8-1.7-2-3.2-3.4-4.5c0.6-0.5,1.1-1.1,1.5-1.8c2.6-0.2,4.8-1.3,6.4-5.6c0.5-1.8,0.7-3.6,0.7-5.4
		c6.3,0.6,10.7,1.4,12.7,2.3c0.4,0.2,0.8,0.1,1-0.3c0.2-0.4,0.1-0.8-0.3-1c0,0-0.1,0-0.1,0c-2.2-1-6.6-1.8-13-2.4l0.8-0.6l0.3-0.2
		c6,0.3,18.2,1.1,22.4,3c0.4,0.1,0.8-0.1,1-0.5c0.1-0.3,0-0.7-0.4-0.9c-4.1-1.8-14.6-2.6-21.1-3c0.4-0.3,0.8-0.6,1.1-0.9
		c8.3,0.1,14,0.6,16.6,1.5c0.4,0.1,0.8-0.1,0.9-0.5c0.1-0.4-0.1-0.8-0.4-0.9c-2.6-0.9-7.8-1.5-15.5-1.6l0.7-0.7h0.2
		c6.2-0.3,17.1-0.6,21.2,0.7c0.4,0.1,0.9-0.1,1-0.5C96,64.2,95.7,63.8,95.3,63.6z M53.3,82.5c-0.2-0.4-0.7-0.5-1-0.3
		c-0.4,0.2-0.5,0.7-0.3,1c0.2,0.3,0.4,0.7,0.6,1.2c-1.7,0.3-3.5,0.3-5.2,0c0.3-0.7,0.6-1.2,0.6-1.2c0.2-0.4,0.1-0.8-0.3-1
		c-0.4-0.2-0.8-0.1-1,0.3c0,0.1-0.4,0.7-0.9,1.7c-1.4-0.3-2.6-1-3.6-2h2.4c2.2,0,4.2-1.2,5.2-3.1c1.1,1.9,3.1,3.1,5.3,3.1h2.4
		c-1,1-2.2,1.7-3.6,2C53.7,83.3,53.3,82.6,53.3,82.5L53.3,82.5z M70.4,65.3L70.4,65.3c-0.9,0.8-1.8,1.4-2.8,2.1h-0.8
		c0.1-1.7,0.4-3.2,1.1-3.7c0.3-0.3,0.4-0.7,0.1-1.1c-0.3-0.3-0.7-0.4-1.1-0.1c-1,0.8-1.4,2.6-1.6,4.8h-0.6c-0.4,0-0.7,0.3-0.8,0.7
		c0,0,0,0,0,0c0,0.4,0.3,0.8,0.7,0.8c0,0,0,0,0,0h0.6v0.7h-0.2c-0.4,0-0.8,0.3-0.8,0.7c0,0.4,0.3,0.8,0.7,0.8h0.2
		c0,1.7-0.2,3.4-0.6,5c-1.4,3.8-3.1,4.5-5.5,4.7h-3.8c-2.5,0-4.5-2-4.5-4.5c0.3-0.3,0.7-0.6,1.2-0.8c1-0.6,2.5-1.5,1.9-2.8
		c-0.2-0.4-0.1-0.7,1.7-1.8l0.6-0.4c0.7-0.4,1.2-1.2,1.3-2c0-0.7-0.4-1.2-1-1.6c-0.3-0.2-0.8-0.1-1,0.2c-0.2,0.3-0.1,0.8,0.2,1
		c0.1,0.1,0.3,0.2,0.3,0.4s-0.2,0.4-0.7,0.8l-0.6,0.4c-1.6,1.1-2.9,2-2.2,3.6c-0.1,0.2-0.9,0.7-1.3,1c-0.4,0.2-0.8,0.5-1.1,0.8
		c-0.4-0.3-0.7-0.5-1.1-0.8c-0.5-0.3-0.9-0.6-1.3-0.9c0.7-1.7-0.6-2.5-2.2-3.7l-0.6-0.4c-0.5-0.3-0.7-0.6-0.7-0.8s0.2-0.3,0.3-0.4
		c0.3-0.2,0.4-0.7,0.2-1c-0.2-0.3-0.6-0.4-1-0.2c-0.6,0.4-0.9,0.9-1,1.6c0.1,0.8,0.6,1.6,1.3,2l0.6,0.4c1.7,1.2,1.8,1.4,1.7,1.8
		c-0.5,1.3,0.9,2.2,1.9,2.8c0.4,0.2,0.8,0.5,1.2,0.8c0,2.5-2,4.5-4.5,4.5h-1.6c-3.7,0.1-6,0.1-7.8-4.7c-0.4-1.7-0.6-3.3-0.6-5H35
		c0.4,0,0.7-0.4,0.7-0.8c0-0.4-0.4-0.7-0.8-0.7h-0.1v-0.7h0.6c0.4,0,0.8-0.3,0.8-0.8s-0.3-0.8-0.8-0.8h-0.6c-0.2-2.2-0.6-4-1.6-4.8
		c-0.4-0.3-0.9-0.2-1.1,0.1c-0.3,0.4-0.2,0.9,0.1,1.1c0.6,0.5,0.9,2,1.1,3.7h-0.9c-0.9-0.6-1.7-1.3-2.5-2c0-0.1-0.1-0.1-0.1-0.1
		c-0.3-0.2-0.5-0.5-0.8-0.7l2.3,0.2h0.1c0.4,0,0.8-0.3,0.8-0.7c0-0.4-0.3-0.8-0.7-0.8c0,0-1.6-0.1-4-0.2c-5.4-6.2-5.6-12.2-4.7-14.9
		c0-0.1,2.3-7.6,0.2-10.9c-0.5-0.8-1.3-1.3-2.2-1.4c-0.6-0.1-0.8-1-1-2.3c-0.1-0.6-0.2-1.2-0.4-1.8c-0.4-0.8-0.9-1.4-1.6-1.9
		c-1.2-1-2.2-2.2-2.8-3.7c-1-2.4-0.2-3.7,0.1-4.1c0.7-0.1,1.5,0.1,2.1,0.5c0.1,0.1,7.5,5.5,10.8,5.5H28c-3,2.1-4.8,4.9-4.8,7.6
		c0,0.4,0.3,0.8,0.8,0.8s0.8-0.3,0.8-0.8c0-2.8,2.6-5.9,6.6-7.9c1.6-0.2,3.1-0.7,4.5-1.5c0.4-0.2,0.5-0.6,0.3-1s-0.6-0.5-1-0.3
		c0,0,0,0,0,0c-2.3,1.2-4.9,1.7-7.6,1.6c-1.2,0-3.6-1.2-5.9-2.5c3.2,1.4,6.9,0.7,9.3-1.7c4-3.8,6.5-5.1,19-5.1s15,1.3,19,5.1
		c1.5,1.6,3.6,2.4,5.8,2.5c1.2,0,2.3-0.2,3.4-0.7c-2.2,1.3-4.6,2.5-5.8,2.5c-2.6,0.1-5.2-0.4-7.6-1.6c-0.4-0.2-0.8-0.1-1,0.3
		c-0.2,0.4-0.1,0.8,0.3,1c1.4,0.8,2.9,1.3,4.5,1.5c4,2,6.6,5,6.6,7.9c0,0.4,0.3,0.8,0.8,0.8s0.8-0.3,0.8-0.8c0-2.7-1.8-5.4-4.8-7.6
		h0.4c3.3,0,10.7-5.5,10.8-5.5c0.6-0.4,1.3-0.6,2.1-0.5c0.3,0.4,1.1,1.7,0.1,4.1c-0.6,1.4-1.6,2.7-2.8,3.7c-0.7,0.5-1.3,1.2-1.6,1.9
		c-0.2,0.6-0.4,1.2-0.4,1.8c-0.2,1.3-0.4,2.2-1,2.3c-0.9,0.1-1.8,0.6-2.2,1.5c-2.1,3.3,0.2,10.9,0.2,10.9c0.9,2.7,0.7,8.7-4.7,14.9
		c-2.4,0.1-4,0.2-4,0.2c-0.4,0-0.7,0.4-0.7,0.8s0.4,0.7,0.8,0.7h0.1l2.3-0.2C71,64.8,70.7,65,70.4,65.3z"/>
	<path class="st0" d="M64.8,40.2c0.2,0,0.4-0.1,0.6-0.3l3.2-3.9c0.3-0.3,0.2-0.8-0.1-1.1c-0.3-0.3-0.8-0.2-1.1,0.1c0,0,0,0,0,0
		l-3.2,3.9c-0.3,0.3-0.2,0.8,0.1,1.1C64.4,40.1,64.6,40.2,64.8,40.2L64.8,40.2z M61.1,38.1c0.1,0,0.2,0,0.3,0c0.3,0,0.6-0.2,0.7-0.5
		l1.4-3.7c0.1-0.4,0-0.8-0.4-1s-0.8,0-1,0.4l-1.4,3.7C60.5,37.5,60.6,37.9,61.1,38.1C61,38.1,61,38.1,61.1,38.1z M58,37.8
		c0.4,0,0.7-0.4,0.7-0.8c0,0,0,0,0,0l-0.2-3.2c0-0.4-0.4-0.7-0.8-0.7c-0.4,0-0.7,0.4-0.7,0.8l0.2,3.2C57.2,37.6,57.6,37.9,58,37.8
		C58,37.8,58,37.8,58,37.8z"/>
	<circle class="st0" cx="38.1" cy="72.5" r="1.1"/>
	<circle class="st0" cx="38.5" cy="76" r="1.1"/>
	<circle class="st0" cx="41.2" cy="78.4" r="1.1"/>
	<circle class="st0" cx="42.1" cy="74.7" r="1.1"/>
	<circle class="st0" cx="45.1" cy="76.6" r="1.1"/>
	<circle class="st0" cx="61.9" cy="72.5" r="1.1"/>
	<circle class="st0" cx="61.5" cy="76" r="1.1"/>
	<circle class="st0" cx="58.8" cy="78.4" r="1.1"/>
	<circle class="st0" cx="57.9" cy="74.7" r="1.1"/>
	<circle class="st0" cx="54.9" cy="76.6" r="1.1"/>
	<path class="st0" d="M53.6,55.1c-0.4,0-0.8,0.3-0.8,0.7c0,0,0,0,0,0c-0.3,2.1-1.3,4-2.7,5.4c-1.5-1.4-2.5-3.3-2.7-5.4
		c0-0.4-0.4-0.7-0.8-0.7c-0.4,0-0.7,0.4-0.7,0.8c0.4,2.7,1.7,5.1,3.7,6.9c0.1,0.1,0.3,0.2,0.5,0.2c0.2,0,0.3-0.1,0.5-0.2
		c2-1.8,3.4-4.2,3.7-6.9C54.2,55.6,53.9,55.2,53.6,55.1z M40.4,57.8c-0.4-0.2-0.8-0.1-1,0.3c-0.2,0.3-0.5,0.7-0.7,1.1
		c-1.3,1.9-3.4,4.9-0.5,8c0.3,0.3,0.8,0.2,1.1-0.1c0.2-0.3,0.2-0.6,0-0.9c-1.9-2-0.9-3.8,0.6-6.1c0.3-0.4,0.6-0.8,0.8-1.2
		C40.9,58.6,40.8,58.1,40.4,57.8C40.4,57.9,40.4,57.8,40.4,57.8z M60.7,58.1c-0.2-0.4-0.7-0.5-1-0.3c-0.4,0.2-0.5,0.7-0.3,1
		c0.2,0.4,0.5,0.8,0.8,1.2c1.6,2.3,2.5,4,0.6,6.1c-0.3,0.3-0.4,0.7-0.1,1.1c0.3,0.3,0.7,0.4,1.1,0.1c0.1,0,0.1-0.1,0.1-0.1
		c2.9-3.1,0.8-6-0.5-8C61.2,58.8,60.9,58.5,60.7,58.1z M41.9,67.6c0.1-0.4-0.1-0.8-0.5-0.9c-0.4-0.1-0.8,0.1-0.9,0.5
		C39.9,69,40.7,71,42.4,72c0.4,0.2,0.8,0.1,1-0.3s0.1-0.8-0.3-1C42,70.1,41.5,68.8,41.9,67.6z M57.6,72c1.7-1,2.5-3,1.9-4.8
		c-0.1-0.4-0.6-0.6-0.9-0.5c-0.4,0.1-0.6,0.6-0.5,0.9l0,0c0.3,1.2-0.2,2.4-1.2,3c-0.4,0.2-0.5,0.7-0.3,1S57.3,72.1,57.6,72L57.6,72z
		 M52.9,67.8c-1.4,1.6-3.8,1.8-5.4,0.4c-0.1-0.1-0.3-0.2-0.4-0.4c-0.3-0.3-0.8-0.4-1.1-0.1c-0.3,0.3-0.4,0.8-0.1,1.1
		c1.9,2.2,5.3,2.5,7.5,0.6c0.2-0.2,0.4-0.4,0.6-0.6c0.3-0.3,0.2-0.8-0.1-1.1C53.6,67.4,53.1,67.5,52.9,67.8L52.9,67.8L52.9,67.8z
		 M30.5,53.2c-0.3-0.2-0.8-0.1-1,0.2s-0.1,0.8,0.2,1c0,0,0.1,0,0.1,0.1c2.6,1.5,3.8,3.6,3.8,4.4c0,0.4,0.3,0.8,0.8,0.8
		s0.8-0.3,0.8-0.8C35.1,57.3,33.4,54.7,30.5,53.2z M70.6,53.5c-0.2-0.4-0.6-0.5-1-0.3c-2.9,1.6-4.6,4.1-4.6,5.7
		c0,0.4,0.3,0.8,0.7,0.8s0.8-0.3,0.8-0.8c0-0.8,1.1-2.9,3.8-4.4C70.6,54.3,70.8,53.8,70.6,53.5C70.6,53.5,70.6,53.5,70.6,53.5z"/>
</g>
<g transform="matrix(0.4959242904269749,0,0,0.4959242904269749,111.69879049937542,160.64609744192566)">
	<path d="M55.7-141.3l-2.8-7H42.3l-2.8,7h-1.8l8.9-22.2h2l8.9,22.2H55.7z M42.9-149.8h9.4l-3.9-9.7l-0.8-2.4h0l-0.8,2.3L42.9-149.8z
		 M86.4-152.2h9.1v10.9h-1.3l-0.1-3.9l0,0c-0.6,1.3-1.6,2.4-2.8,3.1l0,0l0,0c-1.3,0.7-2.9,1.1-4.8,1.1l0,0l0,0c-2,0-3.8-0.5-5.3-1.4
		l0,0l0,0c-1.5-0.9-2.7-2.3-3.5-4l0,0l0,0c-0.8-1.7-1.2-3.8-1.2-6.1l0,0l0,0c0-2.3,0.4-4.3,1.3-6.1l0,0l0,0c0.8-1.7,2-3.1,3.5-4l0,0
		l0,0c1.5-0.9,3.3-1.4,5.3-1.4l0,0l0,0c2.3,0,4.1,0.4,5.6,1.3l0,0l0,0c1.4,0.9,2.5,2.3,3.2,4.1l0,0l-1.6,0.8l0,0
		c-0.5-1.5-1.4-2.7-2.6-3.5l0,0l0,0c-1.2-0.8-2.8-1.2-4.6-1.2l0,0l0,0c-1.7,0-3.1,0.4-4.4,1.2l0,0l0,0c-1.3,0.8-2.2,1.9-2.9,3.4l0,0
		l0,0c-0.7,1.5-1.1,3.2-1.1,5.3l0,0l0,0c0,3.1,0.7,5.5,2.2,7.3l0,0l0,0c1.5,1.8,3.5,2.6,6.1,2.6l0,0l0,0c1.6,0,3-0.3,4.1-1l0,0l0,0
		c1.1-0.6,1.9-1.5,2.5-2.5l0,0l0,0c0.5-1,0.8-2.2,0.8-3.4l0,0v-1.2h-7.6V-152.2z M120.1-142.8h14v1.5h-15.7v-22.2h15.2v1.5h-13.5
		v8.6h10.7v1.6h-10.7V-142.8z M172.9-163.5v22.2h-2.1L159-158.7l-1.6-3h0l0.1,2.8v17.6h-1.6v-22.2h2.1l11.7,17.4l1.7,3l-0.1-2.8
		v-17.6H172.9z M214.3-146.9L214.3-146.9c-0.6,1.9-1.7,3.4-3.3,4.4l0,0l0,0c-1.6,1-3.4,1.6-5.6,1.6l0,0l0,0c-2,0-3.8-0.5-5.3-1.4
		l0,0l0,0c-1.5-0.9-2.7-2.3-3.5-4l0,0l0,0c-0.8-1.7-1.2-3.8-1.2-6.1l0,0l0,0c0-2.3,0.4-4.3,1.2-6.1l0,0l0,0c0.8-1.7,2-3.1,3.5-4l0,0
		l0,0c1.5-0.9,3.3-1.4,5.3-1.4l0,0l0,0c4.4,0,7.3,1.8,8.6,5.5l0,0l-1.7,0.8l0,0c-0.5-1.6-1.3-2.8-2.5-3.5l0,0l0,0
		c-1.1-0.8-2.6-1.2-4.4-1.2l0,0l0,0c-1.7,0-3.1,0.4-4.4,1.2l0,0l0,0c-1.3,0.8-2.3,1.9-3,3.4l0,0l0,0c-0.7,1.5-1,3.2-1,5.3l0,0l0,0
		c0,2,0.3,3.8,1,5.3l0,0l0,0c0.7,1.5,1.6,2.6,2.9,3.4l0,0l0,0c1.3,0.8,2.7,1.2,4.4,1.2l0,0l0,0c1.8,0,3.3-0.4,4.6-1.3l0,0l0,0
		c1.3-0.9,2.1-2.1,2.6-3.7l0,0L214.3-146.9z M237.8-142.8h14v1.5h-15.7v-22.2h15.2v1.5h-13.5v8.6h10.7v1.6h-10.7V-142.8z
		 M307.9-163.5L307.9-163.5c3.5,0,6.3,0.9,8.2,2.8l0,0l0,0c1.9,1.9,2.9,4.6,2.9,8.1l0,0l0,0c0,3.6-1,6.4-2.9,8.4l0,0l0,0
		c-1.9,1.9-4.7,2.9-8.2,2.9l0,0h-7v-22.2H307.9z M308.1-142.8L308.1-142.8c3,0,5.2-0.8,6.8-2.5l0,0l0,0c1.6-1.7,2.4-4.1,2.4-7.2l0,0
		l0,0c0-3-0.8-5.3-2.4-7l0,0l0,0c-1.6-1.6-3.8-2.5-6.8-2.5l0,0h-5.5v19.1H308.1z M343.2-142.8h14v1.5h-15.7v-22.2h15.2v1.5h-13.5
		v8.6h10.7v1.6h-10.7V-142.8z M417.3-156.9l-4.5,15.6h-2.1l-6.9-22.2h1.8l6.2,20.9l5.8-20.9h1.9l5.8,20.9l6.2-20.9h1.7l-7,22.2h-2.1
		l-4.5-15.6l-1.2-4.8h0L417.3-156.9z M456.4-142.8h14v1.5h-15.7v-22.2h15.2v1.5h-13.5v8.6h10.7v1.6h-10.7V-142.8z M492.2-141.3
		v-22.2h7.8l0,0c2.4,0,4.3,0.5,5.5,1.5l0,0l0,0c1.2,1,1.8,2.5,1.8,4.4l0,0l0,0c0,1.3-0.4,2.4-1.1,3.3l0,0l0,0
		c-0.7,0.9-1.7,1.5-3,1.8l0,0v0l0,0c1.4,0.2,2.6,0.8,3.4,1.8l0,0l0,0c0.8,0.9,1.3,2.1,1.3,3.5l0,0l0,0c0,1.9-0.7,3.4-2,4.4l0,0l0,0
		c-1.4,1-3.3,1.6-5.8,1.6l0,0H492.2z M493.9-153.3h6.2l0,0c3.6,0,5.4-1.5,5.4-4.4l0,0l0,0c0-2.9-1.8-4.4-5.4-4.4l0,0h-6.2V-153.3z
		 M493.9-142.8h6.5l0,0c1.9,0,3.3-0.4,4.3-1.2l0,0l0,0c1-0.8,1.4-1.9,1.4-3.3l0,0l0,0c0-1.5-0.5-2.6-1.4-3.3l0,0l0,0
		c-1-0.8-2.4-1.1-4.3-1.1l0,0h-6.5V-142.8z M564.7-163.5L564.7-163.5c3.6,0,6.3,0.9,8.2,2.8l0,0l0,0c1.9,1.9,2.9,4.6,2.9,8.1l0,0
		l0,0c0,3.6-1,6.4-2.9,8.4l0,0l0,0c-1.9,1.9-4.6,2.9-8.2,2.9l0,0h-7v-22.2H564.7z M564.8-142.8L564.8-142.8c3,0,5.2-0.8,6.8-2.5l0,0
		l0,0c1.6-1.7,2.4-4.1,2.4-7.2l0,0l0,0c0-3-0.8-5.3-2.4-7l0,0l0,0c-1.6-1.6-3.9-2.5-6.8-2.5l0,0h-5.5v19.1H564.8z M599.9-142.8h14
		v1.5h-15.7v-22.2h15.2v1.5h-13.5v8.6h10.7v1.6h-10.7V-142.8z M642.5-163.9L642.5-163.9c4.2,0,7,1.6,8.4,4.9l0,0l-1.4,1.2l0,0
		c-0.6-1.6-1.4-2.7-2.5-3.5l0,0l0,0c-1.1-0.7-2.6-1.1-4.4-1.1l0,0l0,0c-1.3,0-2.5,0.2-3.4,0.6l0,0l0,0c-1,0.4-1.7,0.9-2.2,1.6l0,0
		l0,0c-0.5,0.7-0.8,1.5-0.8,2.4l0,0l0,0c0,0.8,0.2,1.6,0.6,2.1l0,0l0,0c0.4,0.6,1.1,1,2.2,1.4l0,0l0,0c1,0.4,2.4,0.7,4.2,1.1l0,0
		l0,0c2.9,0.5,4.9,1.2,6.2,2.2l0,0l0,0c1.2,0.9,1.8,2.2,1.8,3.9l0,0l0,0c0,1.2-0.3,2.2-1,3.2l0,0l0,0c-0.7,0.9-1.7,1.6-2.9,2.1l0,0
		l0,0c-1.3,0.5-2.7,0.8-4.4,0.8l0,0l0,0c-2.3,0-4.3-0.5-5.9-1.4l0,0l0,0c-1.6-0.9-2.7-2.2-3.3-3.9l0,0l1.5-1.2l0,0
		c0.4,1.6,1.3,2.8,2.7,3.7l0,0l0,0c1.4,0.8,3,1.3,5.1,1.3l0,0l0,0c1.9,0,3.5-0.4,4.7-1.2l0,0l0,0c1.2-0.8,1.9-1.9,1.9-3.2l0,0l0,0
		c0-1.2-0.5-2.1-1.5-2.8l0,0l0,0c-1-0.7-2.7-1.3-5.2-1.7l0,0l0,0c-2.1-0.4-3.7-0.8-5-1.3l0,0l0,0c-1.2-0.5-2.1-1.2-2.6-1.9l0,0l0,0
		c-0.5-0.8-0.8-1.7-0.8-2.9l0,0l0,0c0-1.1,0.3-2.2,1-3.2l0,0l0,0c0.7-1,1.6-1.7,2.8-2.3l0,0l0,0
		C639.5-163.6,640.9-163.9,642.5-163.9L642.5-163.9z M675-163.5v22.2h-1.7v-22.2H675z M707.4-152.2h9.1v10.9h-1.3l0-3.9l0,0
		c-0.6,1.3-1.6,2.4-2.9,3.1l0,0l0,0c-1.3,0.7-2.9,1.1-4.8,1.1l0,0l0,0c-2,0-3.8-0.5-5.3-1.4l0,0l0,0c-1.5-0.9-2.7-2.3-3.5-4l0,0l0,0
		c-0.8-1.7-1.2-3.8-1.2-6.1l0,0l0,0c0-2.3,0.4-4.3,1.3-6.1l0,0l0,0c0.8-1.7,2-3.1,3.6-4l0,0l0,0c1.5-0.9,3.3-1.4,5.3-1.4l0,0l0,0
		c2.3,0,4.1,0.4,5.6,1.3l0,0l0,0c1.4,0.9,2.5,2.3,3.2,4.1l0,0l-1.5,0.8l0,0c-0.5-1.5-1.4-2.7-2.6-3.5l0,0l0,0
		c-1.2-0.8-2.8-1.2-4.6-1.2l0,0l0,0c-1.7,0-3.1,0.4-4.4,1.2l0,0l0,0c-1.3,0.8-2.2,1.9-2.9,3.4l0,0l0,0c-0.7,1.5-1,3.2-1,5.3l0,0l0,0
		c0,3.1,0.7,5.5,2.2,7.3l0,0l0,0c1.5,1.8,3.5,2.6,6.1,2.6l0,0l0,0c1.6,0,3-0.3,4.1-1l0,0l0,0c1.1-0.6,2-1.5,2.5-2.5l0,0l0,0
		c0.5-1,0.8-2.2,0.8-3.4l0,0v-1.2h-7.6V-152.2z M756.4-163.5v22.2h-2.1l-11.8-17.4l-1.6-3h0l0.1,2.8v17.6h-1.6v-22.2h2.1l11.8,17.4
		l1.7,3l-0.1-2.8v-17.6H756.4z"/>
</g>
</svg>
